<?xml version="1.0" encoding="UTF-8"?>
<!DOCTYPE svg PUBLIC "-//W3C//DTD SVG 1.1//EN" "http://www.w3.org/Graphics/SVG/1.1/DTD/svg11.dtd">
<!-- Creator: CorelDRAW -->
<svg xmlns="http://www.w3.org/2000/svg" xml:space="preserve" width="118.771mm" height="118.771mm" version="1.1" style="shape-rendering:geometricPrecision; text-rendering:geometricPrecision; image-rendering:optimizeQuality; fill-rule:evenodd; clip-rule:evenodd"
viewBox="0 0 807.86 807.86"
 xmlns:xlink="http://www.w3.org/1999/xlink"
 xmlns:xodm="http://www.corel.com/coreldraw/odm/2003">
 <defs>
  <style type="text/css">
   <![CDATA[
    .str0 {stroke:black;stroke-width:0.52;stroke-miterlimit:22.9256}
    .fil2 {fill:none}
    .fil0 {fill:#790E0D}
    .fil1 {fill:white}
   ]]>
  </style>
 </defs>
 <g id="Layer_x0020_1">
  <metadata id="CorelCorpID_0Corel-Layer"/>
  <circle class="fil0 str0" cx="403.93" cy="403.93" r="403.67"/>
  <g>
   <path class="fil1" d="M583.52 391.87c6.51,-6.51 17.07,-6.51 23.59,0 6.51,6.51 6.51,17.07 0,23.59 -6.51,6.51 -17.07,6.51 -23.59,0 -6.51,-6.51 -6.51,-17.07 0,-23.59zm-152.97 20.62l60.38 60.38c5.55,-1.78 11.56,-1.78 17.11,0l60.65 -60.65c-1.74,-5.42 -1.78,-11.27 -0.13,-16.7l-60.66 -60.66c-5.44,1.65 -11.29,1.61 -16.71,-0.13l-60.64 60.65c1.78,5.55 1.78,11.56 0,17.12zm42.45 -112.53l-60.66 -60.66c-5.44,1.65 -11.29,1.61 -16.71,-0.13l-60.64 60.65c1.78,5.55 1.78,11.56 0,17.12l60.38 60.38c5.55,-1.78 11.56,-1.78 17.11,0l60.65 -60.65c-1.74,-5.42 -1.78,-11.27 -0.13,-16.7l0 0zm17.79 -18.34c5.67,-1.91 11.83,-1.96 17.51,-0.13l60.27 -60.27c-8.31,-15.97 -5.76,-36.12 7.65,-49.52 16.55,-16.55 43.39,-16.55 59.94,-0 16.56,16.55 16.56,43.39 0,59.94 -13.4,13.4 -33.55,15.95 -49.52,7.65l-60.27 60.27c1.82,5.69 1.78,11.85 -0.13,17.52l60.11 60.11c5.67,-1.91 11.83,-1.96 17.51,-0.13l60.27 -60.27c-8.31,-15.97 -5.76,-36.12 7.65,-49.52 16.55,-16.55 43.39,-16.55 59.94,-0 16.56,16.56 16.56,43.39 0,59.94 -13.4,13.4 -33.55,15.95 -49.52,7.65l-60.27 60.27c1.82,5.69 1.78,11.85 -0.13,17.52l60.4 60.4c15.97,-8.31 36.12,-5.76 49.52,7.65 16.55,16.55 16.55,43.39 0,59.94 -16.55,16.55 -43.39,16.55 -59.94,0 -13.4,-13.4 -15.96,-33.56 -7.65,-49.52l-60.68 -60.68c-5.44,1.65 -11.29,1.61 -16.71,-0.13l-60.64 60.65c1.78,5.55 1.78,11.56 0,17.12l60.54 60.54c15.97,-8.31 36.12,-5.76 49.52,7.65 16.55,16.55 16.55,43.39 0,59.94 -16.55,16.55 -43.39,16.55 -59.94,0 -13.4,-13.4 -15.96,-33.56 -7.65,-49.52l-60.54 -60.54c-5.56,1.78 -11.56,1.78 -17.11,0l-60.21 60.21c1.81,5.64 1.78,11.74 -0.08,17.37l60.45 60.45c15.97,-8.31 36.12,-5.76 49.52,7.65 16.55,16.55 16.55,43.39 0,59.94 -16.55,16.55 -43.39,16.55 -59.94,0 -13.4,-13.4 -15.96,-33.56 -7.65,-49.52l-60.63 -60.63c-5.48,1.7 -11.39,1.67 -16.85,-0.08l-60.71 60.71c8.31,15.97 5.76,36.12 -7.65,49.52 -16.55,16.55 -43.39,16.55 -59.94,0 -16.55,-16.55 -16.55,-43.39 0,-59.94 13.4,-13.4 33.56,-15.95 49.52,-7.65l60.71 -60.71c-1.75,-5.47 -1.78,-11.37 -0.08,-16.85l-60.56 -60.56c-5.48,1.7 -11.39,1.67 -16.85,-0.08l-60.71 60.71c8.31,15.97 5.76,36.12 -7.65,49.52 -16.55,16.55 -43.39,16.55 -59.94,0 -16.55,-16.55 -16.55,-43.39 0,-59.94 13.4,-13.4 33.56,-15.95 49.52,-7.65l60.71 -60.71c-1.75,-5.47 -1.78,-11.37 -0.08,-16.85l-60.56 -60.56c-5.48,1.7 -11.39,1.67 -16.85,-0.08l-60.71 60.71c8.31,15.97 5.76,36.12 -7.65,49.52 -16.55,16.55 -43.39,16.55 -59.94,0 -16.55,-16.55 -16.55,-43.39 0,-59.94 13.4,-13.4 33.56,-15.95 49.52,-7.65l60.71 -60.71c-1.75,-5.47 -1.78,-11.37 -0.08,-16.85l-60.62 -60.62c-15.97,8.3 -36.12,5.76 -49.52,-7.65 -16.55,-16.55 -16.55,-43.39 -0,-59.94 16.56,-16.55 43.39,-16.55 59.94,0 13.4,13.4 15.95,33.55 7.65,49.52l60.45 60.45c5.62,-1.86 11.73,-1.89 17.37,-0.08l60.21 -60.21c-1.78,-5.55 -1.78,-11.56 0,-17.11l-60.54 -60.54c-15.97,8.3 -36.12,5.76 -49.52,-7.65 -16.55,-16.55 -16.55,-43.39 -0,-59.94 16.55,-16.55 43.39,-16.55 59.94,0 13.4,13.4 15.95,33.55 7.65,49.52l60.54 60.54c5.55,-1.78 11.56,-1.78 17.11,0l60.65 -60.65c-1.74,-5.42 -1.78,-11.27 -0.13,-16.7l-60.68 -60.68c-15.97,8.3 -36.12,5.76 -49.52,-7.65 -16.55,-16.55 -16.55,-43.39 -0,-59.94 16.55,-16.55 43.39,-16.55 59.94,0 13.4,13.4 15.95,33.55 7.65,49.52l60.4 60.4c5.67,-1.91 11.83,-1.96 17.51,-0.13l60.27 -60.27c-8.31,-15.97 -5.76,-36.12 7.65,-49.52 16.55,-16.55 43.39,-16.55 59.94,-0 16.56,16.55 16.56,43.39 0,59.94 -13.4,13.4 -33.55,15.95 -49.52,7.65l-60.27 60.27c1.82,5.69 1.78,11.85 -0.13,17.52l60.11 60.11 -60.11 -60.11 60.11 60.11zm-3.1 206.08c6.51,-6.51 17.07,-6.51 23.59,0 6.51,6.51 6.51,17.07 0,23.59 -6.51,6.51 -17.07,6.51 -23.59,0 -6.51,-6.51 -6.51,-17.07 0,-23.59zm-152.61 20.44l60.21 60.21c5.62,-1.86 11.73,-1.89 17.37,-0.08l60.21 -60.21c-1.78,-5.55 -1.78,-11.56 0,-17.11l-60.38 -60.38c-5.56,1.78 -11.56,1.78 -17.11,0l-60.21 60.21c1.81,5.64 1.78,11.75 -0.08,17.37zm57.23 74.95c6.51,-6.51 17.07,-6.51 23.59,0 6.51,6.51 6.51,17.07 0,23.59 -6.51,6.51 -17.07,6.51 -23.59,0 -6.51,-6.51 -6.51,-17.07 0,-23.59zm95.65 -286.77c6.51,-6.51 17.07,-6.51 23.59,0 6.51,6.51 6.51,17.07 0,23.59 -6.51,6.51 -17.07,6.51 -23.59,0 -6.51,-6.51 -6.51,-17.07 0,-23.59zm-95.82 95.83c6.51,-6.51 17.07,-6.51 23.59,0 6.51,6.51 6.51,17.07 0,23.59 -6.51,6.51 -17.07,6.51 -23.59,0 -6.51,-6.51 -6.51,-17.07 0,-23.59zm-152.62 20.44l60.21 60.21c5.63,-1.86 11.73,-1.89 17.37,-0.08l60.21 -60.21c-1.78,-5.55 -1.78,-11.56 0,-17.11l-60.38 -60.38c-5.56,1.78 -11.56,1.78 -17.11,0l-60.21 60.21c1.81,5.64 1.78,11.74 -0.08,17.37zm57.23 74.95c6.51,-6.51 17.07,-6.51 23.59,0 6.51,6.51 6.51,17.07 0,23.59 -6.51,6.51 -17.07,6.51 -23.59,0 -6.51,-6.51 -6.51,-17.07 0,-23.59zm95.65 -286.77c6.51,-6.51 17.07,-6.51 23.59,0 6.51,6.51 6.51,17.07 0,23.59 -6.51,6.51 -17.07,6.51 -23.59,0 -6.51,-6.51 -6.51,-17.07 0,-23.59zm-95.82 95.83c6.51,-6.51 17.07,-6.51 23.59,0 6.51,6.51 6.51,17.07 0,23.59 -6.51,6.51 -17.07,6.51 -23.59,0 -6.51,-6.51 -6.51,-17.07 0,-23.59zm-95.39 95.39c6.51,-6.51 17.07,-6.51 23.59,0 6.51,6.51 6.51,17.07 0,23.59 -6.51,6.51 -17.07,6.51 -23.59,0 -6.51,-6.51 -6.51,-17.07 0,-23.59zm113.17 326.93c-9.47,9.47 -24.81,9.47 -34.28,-0 -9.47,-9.47 -9.47,-24.81 0,-34.28 9.47,-9.47 24.82,-9.47 34.28,-0 9.47,9.47 9.47,24.82 0,34.28zm404.54 -404.54c-9.47,9.47 -24.81,9.47 -34.28,-0 -9.47,-9.47 -9.47,-24.81 0,-34.28 9.47,-9.47 24.82,-9.47 34.28,-0 9.47,9.47 9.47,24.82 0,34.28zm-36.69 20.48l-60.27 60.27 60.27 -60.27zm-95.45 95.45l-60.64 60.65 60.64 -60.65zm-95.83 95.83l-60.21 60.21 60.21 -60.21zm-95.39 95.39l-60.71 60.71 60.71 -60.71zm-176.74 1.84c-9.47,9.47 -24.81,9.47 -34.28,-0 -9.47,-9.47 -9.47,-24.81 0,-34.28 9.47,-9.47 24.82,-9.47 34.28,-0 9.47,9.47 9.47,24.82 0,34.28zm404.54 -404.54c-9.47,9.47 -24.81,9.47 -34.28,-0 -9.47,-9.47 -9.47,-24.81 0,-34.28 9.47,-9.47 24.82,-9.47 34.28,-0 9.47,9.47 9.47,24.82 0,34.28zm-36.69 20.48l-60.27 60.27 60.27 -60.27zm-95.45 95.45l-60.64 60.65 60.64 -60.65zm-95.83 95.83l-60.21 60.21 60.21 -60.21zm-95.39 95.39l-60.71 60.71 60.71 -60.71zm-176.74 1.84c-9.47,9.47 -24.81,9.47 -34.28,-0 -9.47,-9.47 -9.47,-24.81 0,-34.28 9.47,-9.47 24.82,-9.47 34.28,-0 9.47,9.47 9.47,24.82 0,34.28zm404.54 -404.54c-9.47,9.47 -24.81,9.47 -34.28,-0 -9.47,-9.47 -9.47,-24.81 0,-34.28 9.47,-9.47 24.82,-9.47 34.28,-0 9.47,9.47 9.47,24.82 0,34.28zm-36.69 20.48l-60.27 60.27 60.27 -60.27zm-95.45 95.45l-60.64 60.65 60.64 -60.65zm-95.83 95.83l-60.21 60.21 60.21 -60.21zm-95.39 95.39l-60.71 60.71 60.71 -60.71zm514.48 63.12c9.47,9.47 9.47,24.81 -0,34.28 -9.47,9.47 -24.81,9.47 -34.28,0 -9.47,-9.47 -9.47,-24.82 -0,-34.28 9.47,-9.47 24.82,-9.47 34.28,0zm-404.54 -404.54c9.47,9.47 9.47,24.81 -0,34.28 -9.47,9.47 -24.81,9.47 -34.28,0 -9.47,-9.47 -9.47,-24.82 -0,-34.28 9.47,-9.47 24.82,-9.47 34.28,0zm20.48 36.7l60.4 60.4 -60.4 -60.4zm191.41 191.41l60.11 60.11 -60.11 -60.11zm95.56 95.56l60.4 60.4 -60.4 -60.4zm1.54 176.44c9.47,9.47 9.47,24.81 -0,34.28 -9.47,9.47 -24.81,9.47 -34.28,0 -9.47,-9.47 -9.47,-24.82 -0,-34.28 9.47,-9.47 24.82,-9.47 34.28,0zm-404.54 -404.54c9.47,9.47 9.47,24.81 -0,34.28 -9.47,9.47 -24.81,9.47 -34.28,0 -9.47,-9.47 -9.47,-24.82 -0,-34.28 9.47,-9.47 24.82,-9.47 34.28,0zm20.48 36.7l60.54 60.54 -60.54 -60.54zm95.72 95.71l60.38 60.38 -60.38 -60.38zm95.56 95.56l60.38 60.38 -60.38 -60.38zm95.56 95.56l60.54 60.54 -60.54 -60.54zm1.67 176.57c9.47,9.47 9.47,24.81 -0,34.28 -9.47,9.47 -24.81,9.47 -34.28,0 -9.47,-9.47 -9.47,-24.82 -0,-34.28 9.47,-9.47 24.82,-9.47 34.28,0zm-404.54 -404.54c9.47,9.47 9.47,24.81 -0,34.28 -9.47,9.47 -24.81,9.47 -34.28,0 -9.47,-9.47 -9.47,-24.82 -0,-34.28 9.47,-9.47 24.82,-9.47 34.28,0zm20.48 36.7l60.45 60.45 -60.45 -60.45zm95.8 95.8l60.21 60.21 -60.21 -60.21zm95.56 95.56l60.21 60.21 -60.21 -60.21zm95.56 95.56l60.45 60.45 -60.45 -60.45z"/>
   <path id="_1" class="fil2 str0" d="M583.52 391.87c6.51,-6.51 17.07,-6.51 23.59,0 6.51,6.51 6.51,17.07 0,23.59 -6.51,6.51 -17.07,6.51 -23.59,0 -6.51,-6.51 -6.51,-17.07 0,-23.59zm-152.97 20.62l60.38 60.38c5.55,-1.78 11.56,-1.78 17.11,0l60.65 -60.65c-1.74,-5.42 -1.78,-11.27 -0.13,-16.7l-60.66 -60.66c-5.44,1.65 -11.29,1.61 -16.71,-0.13l-60.64 60.65c1.78,5.55 1.78,11.56 0,17.12zm42.45 -112.53l-60.66 -60.66c-5.44,1.65 -11.29,1.61 -16.71,-0.13l-60.64 60.65c1.78,5.55 1.78,11.56 0,17.12l60.38 60.38c5.55,-1.78 11.56,-1.78 17.11,0l60.65 -60.65c-1.74,-5.42 -1.78,-11.27 -0.13,-16.7m17.79 -18.34c5.67,-1.91 11.83,-1.96 17.51,-0.13l60.27 -60.27c-8.31,-15.97 -5.76,-36.12 7.65,-49.52 16.55,-16.55 43.39,-16.55 59.94,-0 16.56,16.55 16.56,43.39 0,59.94 -13.4,13.4 -33.55,15.95 -49.52,7.65l-60.27 60.27c1.82,5.69 1.78,11.85 -0.13,17.52l60.11 60.11c5.67,-1.91 11.83,-1.96 17.51,-0.13l60.27 -60.27c-8.31,-15.97 -5.76,-36.12 7.65,-49.52 16.55,-16.55 43.39,-16.55 59.94,-0 16.56,16.56 16.56,43.39 0,59.94 -13.4,13.4 -33.55,15.95 -49.52,7.65l-60.27 60.27c1.82,5.69 1.78,11.85 -0.13,17.52l60.4 60.4c15.97,-8.31 36.12,-5.76 49.52,7.65 16.55,16.55 16.55,43.39 0,59.94 -16.55,16.55 -43.39,16.55 -59.94,0 -13.4,-13.4 -15.96,-33.56 -7.65,-49.52l-60.68 -60.68c-5.44,1.65 -11.29,1.61 -16.71,-0.13l-60.64 60.65c1.78,5.55 1.78,11.56 0,17.12l60.54 60.54c15.97,-8.31 36.12,-5.76 49.52,7.65 16.55,16.55 16.55,43.39 0,59.94 -16.55,16.55 -43.39,16.55 -59.94,0 -13.4,-13.4 -15.96,-33.56 -7.65,-49.52l-60.54 -60.54c-5.56,1.78 -11.56,1.78 -17.11,0l-60.21 60.21c1.81,5.64 1.78,11.74 -0.08,17.37l60.45 60.45c15.97,-8.31 36.12,-5.76 49.52,7.65 16.55,16.55 16.55,43.39 0,59.94 -16.55,16.55 -43.39,16.55 -59.94,0 -13.4,-13.4 -15.96,-33.56 -7.65,-49.52l-60.63 -60.63c-5.48,1.7 -11.39,1.67 -16.85,-0.08l-60.71 60.71c8.31,15.97 5.76,36.12 -7.65,49.52 -16.55,16.55 -43.39,16.55 -59.94,0 -16.55,-16.55 -16.55,-43.39 0,-59.94 13.4,-13.4 33.56,-15.95 49.52,-7.65l60.71 -60.71c-1.75,-5.47 -1.78,-11.37 -0.08,-16.85l-60.56 -60.56c-5.48,1.7 -11.39,1.67 -16.85,-0.08l-60.71 60.71c8.31,15.97 5.76,36.12 -7.65,49.52 -16.55,16.55 -43.39,16.55 -59.94,0 -16.55,-16.55 -16.55,-43.39 0,-59.94 13.4,-13.4 33.56,-15.95 49.52,-7.65l60.71 -60.71c-1.75,-5.47 -1.78,-11.37 -0.08,-16.85l-60.56 -60.56c-5.48,1.7 -11.39,1.67 -16.85,-0.08l-60.71 60.71c8.31,15.97 5.76,36.12 -7.65,49.52 -16.55,16.55 -43.39,16.55 -59.94,0 -16.55,-16.55 -16.55,-43.39 0,-59.94 13.4,-13.4 33.56,-15.95 49.52,-7.65l60.71 -60.71c-1.75,-5.47 -1.78,-11.37 -0.08,-16.85l-60.62 -60.62c-15.97,8.3 -36.12,5.76 -49.52,-7.65 -16.55,-16.55 -16.55,-43.39 -0,-59.94 16.56,-16.55 43.39,-16.55 59.94,0 13.4,13.4 15.95,33.55 7.65,49.52l60.45 60.45c5.62,-1.86 11.73,-1.89 17.37,-0.08l60.21 -60.21c-1.78,-5.55 -1.78,-11.56 0,-17.11l-60.54 -60.54c-15.97,8.3 -36.12,5.76 -49.52,-7.65 -16.55,-16.55 -16.55,-43.39 -0,-59.94 16.55,-16.55 43.39,-16.55 59.94,0 13.4,13.4 15.95,33.55 7.65,49.52l60.54 60.54c5.55,-1.78 11.56,-1.78 17.11,0l60.65 -60.65c-1.74,-5.42 -1.78,-11.27 -0.13,-16.7l-60.68 -60.68c-15.97,8.3 -36.12,5.76 -49.52,-7.65 -16.55,-16.55 -16.55,-43.39 -0,-59.94 16.55,-16.55 43.39,-16.55 59.94,0 13.4,13.4 15.95,33.55 7.65,49.52l60.4 60.4c5.67,-1.91 11.83,-1.96 17.51,-0.13l60.27 -60.27c-8.31,-15.97 -5.76,-36.12 7.65,-49.52 16.55,-16.55 43.39,-16.55 59.94,-0 16.56,16.55 16.56,43.39 0,59.94 -13.4,13.4 -33.55,15.95 -49.52,7.65l-60.27 60.27c1.82,5.69 1.78,11.85 -0.13,17.52l60.11 60.11 -60.11 -60.11m57.01 266.19c6.51,-6.51 17.07,-6.51 23.59,0 6.51,6.51 6.51,17.07 0,23.59 -6.51,6.51 -17.07,6.51 -23.59,0 -6.51,-6.51 -6.51,-17.07 0,-23.59zm-152.61 20.44l60.21 60.21c5.62,-1.86 11.73,-1.89 17.37,-0.08l60.21 -60.21c-1.78,-5.55 -1.78,-11.56 0,-17.11l-60.38 -60.38c-5.56,1.78 -11.56,1.78 -17.11,0l-60.21 60.21c1.81,5.64 1.78,11.75 -0.08,17.37zm57.23 74.95c6.51,-6.51 17.07,-6.51 23.59,0 6.51,6.51 6.51,17.07 0,23.59 -6.51,6.51 -17.07,6.51 -23.59,0 -6.51,-6.51 -6.51,-17.07 0,-23.59zm95.65 -286.77c6.51,-6.51 17.07,-6.51 23.59,0 6.51,6.51 6.51,17.07 0,23.59 -6.51,6.51 -17.07,6.51 -23.59,0 -6.51,-6.51 -6.51,-17.07 0,-23.59zm-95.82 95.83c6.51,-6.51 17.07,-6.51 23.59,0 6.51,6.51 6.51,17.07 0,23.59 -6.51,6.51 -17.07,6.51 -23.59,0 -6.51,-6.51 -6.51,-17.07 0,-23.59zm-152.62 20.44l60.21 60.21c5.63,-1.86 11.73,-1.89 17.37,-0.08l60.21 -60.21c-1.78,-5.55 -1.78,-11.56 0,-17.11l-60.38 -60.38c-5.56,1.78 -11.56,1.78 -17.11,0l-60.21 60.21c1.81,5.64 1.78,11.74 -0.08,17.37zm57.23 74.95c6.51,-6.51 17.07,-6.51 23.59,0 6.51,6.51 6.51,17.07 0,23.59 -6.51,6.51 -17.07,6.51 -23.59,0 -6.51,-6.51 -6.51,-17.07 0,-23.59zm95.65 -286.77c6.51,-6.51 17.07,-6.51 23.59,0 6.51,6.51 6.51,17.07 0,23.59 -6.51,6.51 -17.07,6.51 -23.59,0 -6.51,-6.51 -6.51,-17.07 0,-23.59zm-95.82 95.83c6.51,-6.51 17.07,-6.51 23.59,0 6.51,6.51 6.51,17.07 0,23.59 -6.51,6.51 -17.07,6.51 -23.59,0 -6.51,-6.51 -6.51,-17.07 0,-23.59zm-95.39 95.39c6.51,-6.51 17.07,-6.51 23.59,0 6.51,6.51 6.51,17.07 0,23.59 -6.51,6.51 -17.07,6.51 -23.59,0 -6.51,-6.51 -6.51,-17.07 0,-23.59zm113.17 326.93c-9.47,9.47 -24.81,9.47 -34.28,-0 -9.47,-9.47 -9.47,-24.81 0,-34.28 9.47,-9.47 24.82,-9.47 34.28,-0 9.47,9.47 9.47,24.82 0,34.28zm404.54 -404.54c-9.47,9.47 -24.81,9.47 -34.28,-0 -9.47,-9.47 -9.47,-24.81 0,-34.28 9.47,-9.47 24.82,-9.47 34.28,-0 9.47,9.47 9.47,24.82 0,34.28zm-36.69 20.48l-60.27 60.27m-35.18 35.18l-60.64 60.65m-35.18 35.18l-60.21 60.21m-35.18 35.18l-60.71 60.71m-116.03 -58.86c-9.47,9.47 -24.81,9.47 -34.28,-0 -9.47,-9.47 -9.47,-24.81 0,-34.28 9.47,-9.47 24.82,-9.47 34.28,-0 9.47,9.47 9.47,24.82 0,34.28zm404.54 -404.54c-9.47,9.47 -24.81,9.47 -34.28,-0 -9.47,-9.47 -9.47,-24.81 0,-34.28 9.47,-9.47 24.82,-9.47 34.28,-0 9.47,9.47 9.47,24.82 0,34.28zm-36.69 20.48l-60.27 60.27m-35.18 35.18l-60.64 60.65m-35.18 35.18l-60.21 60.21m-35.18 35.18l-60.71 60.71m-116.03 -58.86c-9.47,9.47 -24.81,9.47 -34.28,-0 -9.47,-9.47 -9.47,-24.81 0,-34.28 9.47,-9.47 24.82,-9.47 34.28,-0 9.47,9.47 9.47,24.82 0,34.28zm404.54 -404.54c-9.47,9.47 -24.81,9.47 -34.28,-0 -9.47,-9.47 -9.47,-24.81 0,-34.28 9.47,-9.47 24.82,-9.47 34.28,-0 9.47,9.47 9.47,24.82 0,34.28zm-36.69 20.48l-60.27 60.27m-35.18 35.18l-60.64 60.65m-35.18 35.18l-60.21 60.21m-35.18 35.18l-60.71 60.71m575.18 2.41c9.47,9.47 9.47,24.81 -0,34.28 -9.47,9.47 -24.81,9.47 -34.28,0 -9.47,-9.47 -9.47,-24.82 -0,-34.28 9.47,-9.47 24.82,-9.47 34.28,0zm-404.54 -404.54c9.47,9.47 9.47,24.81 -0,34.28 -9.47,9.47 -24.81,9.47 -34.28,0 -9.47,-9.47 -9.47,-24.82 -0,-34.28 9.47,-9.47 24.82,-9.47 34.28,0zm20.48 36.7l60.4 60.4m131.01 131.01l60.11 60.11m35.45 35.45l60.4 60.4m-58.86 116.04c9.47,9.47 9.47,24.81 -0,34.28 -9.47,9.47 -24.81,9.47 -34.28,0 -9.47,-9.47 -9.47,-24.82 -0,-34.28 9.47,-9.47 24.82,-9.47 34.28,0zm-404.54 -404.54c9.47,9.47 9.47,24.81 -0,34.28 -9.47,9.47 -24.81,9.47 -34.28,0 -9.47,-9.47 -9.47,-24.82 -0,-34.28 9.47,-9.47 24.82,-9.47 34.28,0zm20.48 36.7l60.54 60.54m35.18 35.18l60.38 60.38m35.18 35.18l60.38 60.38m35.18 35.18l60.54 60.54m-58.86 116.04c9.47,9.47 9.47,24.81 -0,34.28 -9.47,9.47 -24.81,9.47 -34.28,0 -9.47,-9.47 -9.47,-24.82 -0,-34.28 9.47,-9.47 24.82,-9.47 34.28,0zm-404.54 -404.54c9.47,9.47 9.47,24.81 -0,34.28 -9.47,9.47 -24.81,9.47 -34.28,0 -9.47,-9.47 -9.47,-24.82 -0,-34.28 9.47,-9.47 24.82,-9.47 34.28,0zm20.48 36.7l60.45 60.45m35.35 35.35l60.21 60.21m35.35 35.35l60.21 60.21m35.35 35.35l60.45 60.45"/>
  </g>
 </g>
</svg>
